<svg width="24" height="24" viewBox="0 0 24 24" fill="none" xmlns="http://www.w3.org/2000/svg">
<path d="M1.1607 0.223096C0.999447 0.245596 0.855072 0.363721 0.735072 0.468721C0.635697 0.554971 0.547572 0.656221 0.459447 0.751846C0.384447 0.836221 0.307572 0.920596 0.234447 1.00497C0.0769466 1.18685 -0.0561784 1.36122 0.0450716 1.60872C0.0844466 1.70435 0.142572 1.79247 0.198822 1.8806C0.309447 2.05122 0.433197 2.21247 0.551322 2.37935C0.553197 2.3831 0.558822 2.38872 0.560697 2.39247C0.761322 2.66247 0.990072 2.91372 1.2132 3.1631C1.7382 3.74247 2.2632 4.31997 2.82007 4.86747C2.98132 5.02497 3.14257 5.1806 3.30757 5.33622C3.9282 5.9156 4.56945 6.4706 5.24257 6.99185C5.61945 7.28435 6.0132 7.5656 6.41445 7.82247C6.50632 7.8806 6.58882 7.95372 6.6957 7.95935C6.99195 7.9781 7.53195 7.52622 7.63882 7.2581C7.6782 7.1531 7.65195 7.00685 7.56945 6.9281C7.5207 6.8831 7.46632 6.84372 7.41757 6.80247C6.1107 5.70372 4.83945 4.51872 3.69195 3.23622C3.0957 2.56872 2.5407 1.8731 2.02882 1.1381C1.84132 0.871846 1.67632 0.539971 1.4382 0.314971C1.37632 0.254971 1.30132 0.215596 1.21695 0.217471C1.1982 0.217471 1.17945 0.219346 1.1607 0.223096Z" fill="#FCC21B"/>
<mask id="mask0_1_345" style="mask-type:luminance" maskUnits="userSpaceOnUse" x="0" y="0" width="8" height="8">
<path d="M1.1607 0.223096C0.999447 0.245596 0.855072 0.363721 0.735072 0.468721C0.635697 0.554971 0.547572 0.656221 0.459447 0.751846C0.384447 0.836221 0.307572 0.920596 0.234447 1.00497C0.0769466 1.18685 -0.0561784 1.36122 0.0450716 1.60872C0.0844466 1.70435 0.142572 1.79247 0.198822 1.8806C0.309447 2.05122 0.433197 2.21247 0.551322 2.37935C0.553197 2.3831 0.558822 2.38872 0.560697 2.39247C0.761322 2.66247 0.990072 2.91372 1.2132 3.1631C1.7382 3.74247 2.2632 4.31997 2.82007 4.86747C2.98132 5.02497 3.14257 5.1806 3.30757 5.33622C3.9282 5.9156 4.56945 6.4706 5.24257 6.99185C5.61945 7.28435 6.0132 7.5656 6.41445 7.82247C6.50632 7.8806 6.58882 7.95372 6.6957 7.95935C6.99195 7.9781 7.53195 7.52622 7.63882 7.2581C7.6782 7.1531 7.65195 7.00685 7.56945 6.9281C7.5207 6.8831 7.46632 6.84372 7.41757 6.80247C6.1107 5.70372 4.83945 4.51872 3.69195 3.23622C3.0957 2.56872 2.5407 1.8731 2.02882 1.1381C1.84132 0.871846 1.67632 0.539971 1.4382 0.314971C1.37632 0.254971 1.30132 0.215596 1.21695 0.217471C1.1982 0.217471 1.17945 0.219346 1.1607 0.223096Z" fill="white"/>
</mask>
<g mask="url(#mask0_1_345)">
<path d="M4.51318 4.11556C4.51318 4.11556 5.00256 5.44119 4.53193 6.41619L5.42443 8.31181L7.36881 8.65494L8.97006 6.06369L6.79506 3.43494L4.51318 4.11556Z" fill="#F79329"/>
</g>
<path d="M6.19704 0.195005C6.19142 0.191255 6.1858 0.18563 6.1783 0.18188C6.09392 0.13688 5.98329 0.123755 5.88767 0.131255C5.71892 0.14438 5.55204 0.16688 5.38517 0.198755C5.26142 0.22313 5.13579 0.236255 5.01017 0.26063C4.44767 0.37313 4.57517 0.975005 4.57142 1.40813C4.56204 2.60813 4.72892 3.78375 5.0683 4.935C5.2258 5.47313 5.41517 6.0075 5.64392 6.51938C5.81642 6.90375 6.02454 7.32563 6.35079 7.60688C6.40142 7.65 6.45392 7.68938 6.50829 7.72688C6.59454 7.78125 6.67705 7.83563 6.77455 7.81313C6.95267 7.77375 7.13079 7.67625 7.27142 7.56C7.31642 7.5225 7.36142 7.47375 7.41017 7.44C7.44204 7.41938 7.47954 7.41188 7.50954 7.38938C7.84892 7.155 7.42517 6.64688 7.29579 6.41813C7.02767 5.9475 6.85142 5.44313 6.71455 4.92188C6.62267 4.56188 6.54767 4.19813 6.48392 3.83063C6.42392 3.4875 6.38079 3.14063 6.34517 2.79375C6.31142 2.46563 6.28892 2.13563 6.2758 1.80563C6.26267 1.48688 6.26267 1.16813 6.27767 0.84938C6.28704 0.66938 6.36017 0.32438 6.19704 0.195005Z" fill="#FCC21B"/>
<mask id="mask1_1_345" style="mask-type:luminance" maskUnits="userSpaceOnUse" x="4" y="0" width="4" height="8">
<path d="M6.19704 0.195005C6.19142 0.191255 6.1858 0.18563 6.1783 0.18188C6.09392 0.13688 5.98329 0.123755 5.88767 0.131255C5.71892 0.14438 5.55204 0.16688 5.38517 0.198755C5.26142 0.22313 5.13579 0.236255 5.01017 0.26063C4.44767 0.37313 4.57517 0.975005 4.57142 1.40813C4.56204 2.60813 4.72892 3.78375 5.0683 4.935C5.2258 5.47313 5.41517 6.0075 5.64392 6.51938C5.81642 6.90375 6.02454 7.32563 6.35079 7.60688C6.40142 7.65 6.45392 7.68938 6.50829 7.72688C6.59454 7.78125 6.67705 7.83563 6.77455 7.81313C6.95267 7.77375 7.13079 7.67625 7.27142 7.56C7.31642 7.5225 7.36142 7.47375 7.41017 7.44C7.44204 7.41938 7.47954 7.41188 7.50954 7.38938C7.84892 7.155 7.42517 6.64688 7.29579 6.41813C7.02767 5.9475 6.85142 5.44313 6.71455 4.92188C6.62267 4.56188 6.54767 4.19813 6.48392 3.83063C6.42392 3.4875 6.38079 3.14063 6.34517 2.79375C6.31142 2.46563 6.28892 2.13563 6.2758 1.80563C6.26267 1.48688 6.26267 1.16813 6.27767 0.84938C6.28704 0.66938 6.36017 0.32438 6.19704 0.195005Z" fill="white"/>
</mask>
<g mask="url(#mask1_1_345)">
<path d="M6.30762 7.56568C6.30762 7.56568 6.53449 7.69881 6.84762 7.51318C7.16262 7.32756 7.62762 6.94881 7.42512 6.62256L7.93324 6.78568L8.11887 7.75693L7.50387 8.34193L6.58887 8.29881L6.30762 7.56568Z" fill="#F79329"/>
</g>
</svg>
