<svg width="24" height="24" viewBox="0 0 24 24" fill="none" xmlns="http://www.w3.org/2000/svg">
<path d="M12 2.0545C6.50713 2.0545 2.05444 6.50719 2.05444 12C2.05444 17.4928 6.50713 21.9455 12 21.9455C17.4928 21.9455 21.9455 17.4928 21.9455 12C21.9455 6.50719 17.4928 2.0545 12 2.0545ZM9.56537 16.1222H7.55141V9.64106H9.56537V16.1222ZM8.54596 8.84542C7.90986 8.84542 7.49857 8.39476 7.49857 7.8374C7.49857 7.26864 7.92229 6.83146 8.57186 6.83146C9.22142 6.83146 9.61924 7.26864 9.63168 7.8374C9.63168 8.39476 9.22142 8.84542 8.54596 8.84542ZM16.9209 16.1222H14.9069V12.5304C14.9069 11.6944 14.6148 11.1267 13.8865 11.1267C13.3302 11.1267 12.9997 11.511 12.8536 11.8809C12.7997 12.0124 12.7863 12.1989 12.7863 12.3844V16.1212H10.7713V11.7079C10.7713 10.8988 10.7454 10.2223 10.7184 9.64003H12.4682L12.5604 10.5403H12.6008C12.866 10.1176 13.5156 9.49395 14.6024 9.49395C15.9274 9.49395 16.9209 10.3818 16.9209 12.2901V16.1222Z" fill="#1E1E1E"/>
</svg>
