<svg width="30" height="30" viewBox="0 0 30 30" fill="none" xmlns="http://www.w3.org/2000/svg">
<path d="M5 21.25V23.75H25V21.25H5ZM5 7.5H7.75C7.64584 7.3125 7.57792 7.11458 7.54625 6.90625C7.51459 6.69792 7.49917 6.47917 7.5 6.25C7.5 5.20833 7.86459 4.32292 8.59375 3.59375C9.32292 2.86458 10.2083 2.5 11.25 2.5C11.875 2.5 12.4533 2.66167 12.985 2.985C13.5167 3.30833 13.98 3.70917 14.375 4.1875L15 5L15.625 4.1875C16 3.6875 16.4583 3.28125 17 2.96875C17.5417 2.65625 18.125 2.5 18.75 2.5C19.7917 2.5 20.6771 2.86458 21.4063 3.59375C22.1354 4.32292 22.5 5.20833 22.5 6.25C22.5 6.47917 22.4842 6.69792 22.4525 6.90625C22.4208 7.11458 22.3533 7.3125 22.25 7.5H25C25.6875 7.5 26.2758 7.745 26.765 8.235C27.2542 8.725 27.4992 9.31333 27.5 10V23.75C27.5 24.4375 27.255 25.0263 26.765 25.5163C26.275 26.0063 25.6867 26.2508 25 26.25H5C4.3125 26.25 3.72375 26.005 3.23375 25.515C2.74375 25.025 2.49917 24.4367 2.5 23.75V10C2.5 9.3125 2.745 8.72375 3.235 8.23375C3.725 7.74375 4.31334 7.49917 5 7.5ZM5 17.5H25V10H18.625L21.25 13.5625L19.25 15L15 9.25L10.75 15L8.75 13.5625L11.3125 10H5V17.5ZM11.25 7.5C11.6042 7.5 11.9013 7.38 12.1413 7.14C12.3813 6.9 12.5008 6.60333 12.5 6.25C12.5 5.89583 12.38 5.59875 12.14 5.35875C11.9 5.11875 11.6033 4.99917 11.25 5C10.8958 5 10.5988 5.12 10.3588 5.36C10.1188 5.6 9.99917 5.89667 10 6.25C10 6.60417 10.12 6.90125 10.36 7.14125C10.6 7.38125 10.8967 7.50083 11.25 7.5ZM18.75 7.5C19.1042 7.5 19.4013 7.38 19.6413 7.14C19.8813 6.9 20.0008 6.60333 20 6.25C20 5.89583 19.88 5.59875 19.64 5.35875C19.4 5.11875 19.1033 4.99917 18.75 5C18.3958 5 18.0988 5.12 17.8588 5.36C17.6188 5.6 17.4992 5.89667 17.5 6.25C17.5 6.60417 17.62 6.90125 17.86 7.14125C18.1 7.38125 18.3967 7.50083 18.75 7.5Z" fill="#4584FF"/>
</svg>
