<svg width="7" height="12" viewBox="0 0 7 12" fill="none" xmlns="http://www.w3.org/2000/svg">
<path fill-rule="evenodd" clip-rule="evenodd" d="M6.64801 6.6483C6.81697 6.47928 6.9119 6.25007 6.9119 6.01107C6.9119 5.77208 6.81697 5.54287 6.64801 5.37385L1.54931 0.275159C1.46617 0.189075 1.36672 0.120411 1.25675 0.0731743C1.14679 0.0259377 1.02852 0.00107397 0.908846 3.40301e-05C0.789171 -0.00100591 0.670488 0.0217989 0.559721 0.0671174C0.448953 0.112436 0.34832 0.179361 0.263694 0.263987C0.179068 0.348613 0.112143 0.449245 0.0668244 0.560013C0.021506 0.67078 -0.0012981 0.789464 -0.000258382 0.909139C0.000781334 1.02881 0.0256453 1.14708 0.0728817 1.25705C0.120119 1.36701 0.188782 1.46646 0.274865 1.54961L4.73633 6.01107L0.274865 10.4725C0.110685 10.6425 0.0198387 10.8702 0.0218923 11.1065C0.0239459 11.3428 0.118735 11.5689 0.285845 11.736C0.452954 11.9031 0.679014 11.9979 0.915333 12C1.15165 12.002 1.37933 11.9112 1.54931 11.747L6.64801 6.6483Z" fill="black"/>
</svg>
