<svg width="26" height="26" viewBox="0 0 26 26" fill="none" xmlns="http://www.w3.org/2000/svg">
<path d="M19.8248 6.18583C19.7245 6.0854 19.6055 6.00573 19.4744 5.95136C19.3434 5.897 19.2029 5.86902 19.061 5.86902C18.9191 5.86902 18.7786 5.897 18.6476 5.95136C18.5165 6.00573 18.3975 6.0854 18.2973 6.18583L12.9998 11.4725L7.70225 6.175C7.60196 6.0747 7.48289 5.99514 7.35184 5.94086C7.2208 5.88658 7.08035 5.85864 6.9385 5.85864C6.79666 5.85864 6.65621 5.88658 6.52517 5.94086C6.39412 5.99514 6.27505 6.0747 6.17475 6.175C6.07446 6.2753 5.9949 6.39437 5.94062 6.52541C5.88634 6.65645 5.8584 6.79691 5.8584 6.93875C5.8584 7.08059 5.88634 7.22104 5.94062 7.35209C5.9949 7.48313 6.07446 7.6022 6.17475 7.7025L11.4723 13L6.17475 18.2975C6.07446 18.3978 5.9949 18.5169 5.94062 18.6479C5.88634 18.779 5.8584 18.9194 5.8584 19.0612C5.8584 19.2031 5.88634 19.3435 5.94062 19.4746C5.9949 19.6056 6.07446 19.7247 6.17475 19.825C6.27505 19.9253 6.39412 20.0049 6.52517 20.0591C6.65621 20.1134 6.79666 20.1414 6.9385 20.1414C7.08035 20.1414 7.2208 20.1134 7.35184 20.0591C7.48289 20.0049 7.60196 19.9253 7.70225 19.825L12.9998 14.5275L18.2973 19.825C18.3976 19.9253 18.5166 20.0049 18.6477 20.0591C18.7787 20.1134 18.9192 20.1414 19.061 20.1414C19.2028 20.1414 19.3433 20.1134 19.4743 20.0591C19.6054 20.0049 19.7245 19.9253 19.8248 19.825C19.925 19.7247 20.0046 19.6056 20.0589 19.4746C20.1132 19.3435 20.1411 19.2031 20.1411 19.0612C20.1411 18.9194 20.1132 18.779 20.0589 18.6479C20.0046 18.5169 19.925 18.3978 19.8248 18.2975L14.5273 13L19.8248 7.7025C20.2364 7.29083 20.2364 6.5975 19.8248 6.18583Z" fill="#555555"/>
</svg>
