<svg width="12" height="7" viewBox="0 0 12 7" fill="none" xmlns="http://www.w3.org/2000/svg">
<path fill-rule="evenodd" clip-rule="evenodd" d="M6.64846 6.64846C6.47944 6.81744 6.25022 6.91236 6.01122 6.91236C5.77222 6.91236 5.54301 6.81744 5.37398 6.64846L0.275165 1.54964C0.189079 1.4665 0.120414 1.36704 0.0731761 1.25708C0.0259383 1.14711 0.001074 1.02884 3.40309e-05 0.909161C-0.00100594 0.789483 0.0217995 0.670797 0.0671191 0.560027C0.112439 0.449257 0.179365 0.348621 0.263993 0.263993C0.348622 0.179365 0.449256 0.112438 0.560027 0.0671187C0.670797 0.021799 0.789483 -0.00100594 0.909161 3.40315e-05C1.02884 0.001074 1.14711 0.0259383 1.25708 0.0731761C1.36704 0.120414 1.4665 0.189079 1.54964 0.275165L6.01122 4.73674L10.4728 0.275165C10.6428 0.110981 10.8705 0.0201317 11.1068 0.0221853C11.3431 0.0242389 11.5692 0.119031 11.7363 0.286144C11.9034 0.453258 11.9982 0.679323 12.0003 0.915648C12.0023 1.15197 11.9115 1.37965 11.7473 1.54964L6.64846 6.64846Z" fill="#7B7777"/>
</svg>
