<svg width="20" height="20" viewBox="0 0 20 20" fill="none" xmlns="http://www.w3.org/2000/svg">
<g clip-path="url(#clip0_1_313)">
<path d="M0.96741 0.185893C0.833035 0.204643 0.712722 0.303081 0.612722 0.390581C0.52991 0.462456 0.456472 0.546831 0.383035 0.626518C0.320535 0.696831 0.256472 0.767143 0.195535 0.837456C0.0642849 0.989018 -0.0466526 1.13433 0.0377224 1.34058C0.0705349 1.42027 0.118972 1.49371 0.165847 1.56714C0.258035 1.70933 0.36116 1.84371 0.459597 1.98277C0.46116 1.98589 0.465847 1.99058 0.46741 1.99371C0.634597 2.21871 0.825222 2.42808 1.01116 2.63589C1.44866 3.11871 1.88616 3.59996 2.35022 4.05621C2.4846 4.18746 2.61897 4.31714 2.75647 4.44683C3.27366 4.92964 3.80803 5.39214 4.36897 5.82652C4.68303 6.07027 5.01116 6.30464 5.34553 6.51871C5.4221 6.56714 5.49085 6.62808 5.57991 6.63277C5.82679 6.64839 6.27679 6.27183 6.36585 6.04839C6.39866 5.96089 6.37678 5.83902 6.30803 5.77339C6.26741 5.73589 6.2221 5.70308 6.18147 5.66871C5.09241 4.75308 4.03304 3.76558 3.07679 2.69683C2.57991 2.14058 2.11741 1.56089 1.69085 0.948393C1.5346 0.726518 1.3971 0.449956 1.19866 0.262456C1.1471 0.212456 1.0846 0.179643 1.01428 0.181206C0.99866 0.181206 0.983035 0.182768 0.96741 0.185893Z" fill="#FCC21B"/>
<mask id="mask0_1_313" style="mask-type:luminance" maskUnits="userSpaceOnUse" x="0" y="0" width="7" height="7">
<path d="M0.96741 0.185893C0.833035 0.204643 0.712722 0.303081 0.612722 0.390581C0.52991 0.462456 0.456472 0.546831 0.383035 0.626518C0.320535 0.696831 0.256472 0.767143 0.195535 0.837456C0.0642849 0.989018 -0.0466526 1.13433 0.0377224 1.34058C0.0705349 1.42027 0.118972 1.49371 0.165847 1.56714C0.258035 1.70933 0.36116 1.84371 0.459597 1.98277C0.46116 1.98589 0.465847 1.99058 0.46741 1.99371C0.634597 2.21871 0.825222 2.42808 1.01116 2.63589C1.44866 3.11871 1.88616 3.59996 2.35022 4.05621C2.4846 4.18746 2.61897 4.31714 2.75647 4.44683C3.27366 4.92964 3.80803 5.39214 4.36897 5.82652C4.68303 6.07027 5.01116 6.30464 5.34553 6.51871C5.4221 6.56714 5.49085 6.62808 5.57991 6.63277C5.82679 6.64839 6.27679 6.27183 6.36585 6.04839C6.39866 5.96089 6.37678 5.83902 6.30803 5.77339C6.26741 5.73589 6.2221 5.70308 6.18147 5.66871C5.09241 4.75308 4.03304 3.76558 3.07679 2.69683C2.57991 2.14058 2.11741 1.56089 1.69085 0.948393C1.5346 0.726518 1.3971 0.449956 1.19866 0.262456C1.1471 0.212456 1.0846 0.179643 1.01428 0.181206C0.99866 0.181206 0.983035 0.182768 0.96741 0.185893Z" fill="white"/>
</mask>
<g mask="url(#mask0_1_313)">
<path d="M3.76123 3.42961C3.76123 3.42961 4.16904 4.5343 3.77686 5.3468L4.52061 6.92649L6.14092 7.21243L7.47529 5.05305L5.66279 2.86243L3.76123 3.42961Z" fill="#F79329"/>
</g>
<path d="M13.3171 19.8922C13.0203 19.8922 12.6468 19.6953 12.2093 19.3047C12.0843 19.1953 11.9562 19.0859 11.8109 18.9609C10.3734 17.7312 7.00776 14.85 4.37964 10.2688C3.81245 9.27812 2.89526 7.08906 2.8562 6.9C2.8187 6.71406 2.86557 6.57344 3.00151 6.46563L7.06714 3.25937C7.07339 3.25312 7.1437 3.19531 7.25307 3.19531C7.39682 3.19531 7.55464 3.29844 7.70776 3.49531C8.23901 4.175 10.2109 6.58437 13.3656 9.02344C14.6765 10.0359 17.2453 11.5516 18.6484 12.3031L18.8359 12.4031C19.5703 12.7953 19.9046 12.975 19.9703 13.1422C20.039 13.3156 19.9546 13.5016 19.689 13.7687C18.9968 14.4609 15.6328 17.9078 14.514 19.0641C14.489 19.0891 14.4593 19.125 14.4218 19.1656C14.2187 19.3922 13.7984 19.8641 13.3578 19.8937L13.3171 19.8922ZM6.31714 5.225C6.09526 5.225 5.87182 5.28906 5.67026 5.41094C5.05307 5.78437 4.79839 6.57812 5.10307 7.17969C5.28901 7.54688 5.6437 7.76562 6.0562 7.76562C6.32182 7.76562 6.58432 7.675 6.81401 7.50469C7.37495 7.08906 7.56714 6.325 7.25151 5.76562C7.06089 5.42656 6.71245 5.225 6.31714 5.225Z" fill="#40C0E7"/>
<path d="M5.1642 0.162443C5.15952 0.159318 5.15483 0.154631 5.14858 0.151506C5.07827 0.114006 4.98608 0.103068 4.90639 0.109318C4.76577 0.120256 4.6267 0.139006 4.48764 0.165568C4.38452 0.185881 4.27983 0.196818 4.17514 0.217131C3.70639 0.310881 3.81264 0.812443 3.80952 1.17338C3.8017 2.17338 3.94077 3.15307 4.22358 4.11244C4.35483 4.56088 4.51264 5.00619 4.70327 5.43276C4.84702 5.75307 5.02045 6.10463 5.29233 6.33901C5.33452 6.37494 5.37827 6.40776 5.42358 6.43901C5.49545 6.48432 5.5642 6.52963 5.64545 6.51088C5.79389 6.47807 5.94233 6.39682 6.05952 6.29994C6.09702 6.26869 6.13452 6.22807 6.17514 6.19994C6.2017 6.18276 6.23295 6.17651 6.25795 6.15776C6.54077 5.96244 6.18764 5.53901 6.07983 5.34838C5.85639 4.95619 5.70952 4.53588 5.59545 4.10151C5.51889 3.80151 5.45639 3.49838 5.40327 3.19213C5.35327 2.90619 5.31733 2.61713 5.28764 2.32807C5.25952 2.05463 5.24077 1.77963 5.22983 1.50463C5.21889 1.23901 5.21889 0.973381 5.23139 0.707756C5.2392 0.557756 5.30014 0.270256 5.1642 0.162443Z" fill="#FCC21B"/>
<mask id="mask1_1_313" style="mask-type:luminance" maskUnits="userSpaceOnUse" x="3" y="0" width="4" height="7">
<path d="M5.1642 0.162443C5.15952 0.159318 5.15483 0.154631 5.14858 0.151506C5.07827 0.114006 4.98608 0.103068 4.90639 0.109318C4.76577 0.120256 4.6267 0.139006 4.48764 0.165568C4.38452 0.185881 4.27983 0.196818 4.17514 0.217131C3.70639 0.310881 3.81264 0.812443 3.80952 1.17338C3.8017 2.17338 3.94077 3.15307 4.22358 4.11244C4.35483 4.56088 4.51264 5.00619 4.70327 5.43276C4.84702 5.75307 5.02045 6.10463 5.29233 6.33901C5.33452 6.37494 5.37827 6.40776 5.42358 6.43901C5.49545 6.48432 5.5642 6.52963 5.64545 6.51088C5.79389 6.47807 5.94233 6.39682 6.05952 6.29994C6.09702 6.26869 6.13452 6.22807 6.17514 6.19994C6.2017 6.18276 6.23295 6.17651 6.25795 6.15776C6.54077 5.96244 6.18764 5.53901 6.07983 5.34838C5.85639 4.95619 5.70952 4.53588 5.59545 4.10151C5.51889 3.80151 5.45639 3.49838 5.40327 3.19213C5.35327 2.90619 5.31733 2.61713 5.28764 2.32807C5.25952 2.05463 5.24077 1.77963 5.22983 1.50463C5.21889 1.23901 5.21889 0.973381 5.23139 0.707756C5.2392 0.557756 5.30014 0.270256 5.1642 0.162443Z" fill="white"/>
</mask>
<g mask="url(#mask1_1_313)">
<path d="M5.25635 6.30461C5.25635 6.30461 5.44541 6.41555 5.70635 6.26086C5.96885 6.10618 6.35635 5.79055 6.1876 5.51868L6.61104 5.65461L6.76572 6.46399L6.25322 6.95149L5.49072 6.91555L5.25635 6.30461Z" fill="#F79329"/>
</g>
<path d="M14.964 12.1015C15.1671 12.9765 15.3031 14.7031 14.4765 16.6297C14.3515 16.9234 14.5953 16.9968 14.7265 16.8765C15.1 16.5359 17.5562 14 17.5562 14C17.5562 14 18.1718 13.5062 17.6781 13.225C17.3093 13.014 15.939 12.2078 15.2765 11.8187C15.0593 11.689 14.8937 11.7984 14.964 12.1015Z" fill="white"/>
</g>
<defs>
<clipPath id="clip0_1_313">
<rect width="20" height="20" fill="white"/>
</clipPath>
</defs>
</svg>
