<svg width="7" height="12" viewBox="0 0 7 12" fill="none" xmlns="http://www.w3.org/2000/svg">
<path fill-rule="evenodd" clip-rule="evenodd" d="M0.263891 6.6483C0.0949216 6.47928 0 6.25007 0 6.01107C0 5.77208 0.0949216 5.54287 0.263891 5.37385L5.36258 0.275159C5.44573 0.189075 5.54518 0.120411 5.65514 0.0731743C5.76511 0.0259377 5.88338 0.00107397 6.00305 3.40301e-05C6.12273 -0.00100591 6.24141 0.0217989 6.35218 0.0671174C6.46294 0.112436 6.56358 0.179361 6.6482 0.263987C6.73283 0.348613 6.79975 0.449245 6.84507 0.560013C6.89039 0.67078 6.91319 0.789464 6.91215 0.909139C6.91112 1.02881 6.88625 1.14708 6.83901 1.25705C6.79178 1.36701 6.72311 1.46646 6.63703 1.54961L2.17556 6.01107L6.63703 10.4725C6.80121 10.6425 6.89206 10.8702 6.89 11.1065C6.88795 11.3428 6.79316 11.5689 6.62605 11.736C6.45894 11.9031 6.23288 11.9979 5.99656 12C5.76024 12.002 5.53257 11.9112 5.36258 11.747L0.263891 6.6483Z" fill="black"/>
</svg>
