<svg width="30" height="30" viewBox="0 0 30 30" fill="none" xmlns="http://www.w3.org/2000/svg">
<path d="M15 15V7.5M15 15L8.4375 18.7888M15 15L21.5625 18.7888M15 7.5C15.663 7.5 16.2989 7.23661 16.7678 6.76777C17.2366 6.29893 17.5 5.66304 17.5 5C17.5 4.33696 17.2366 3.70107 16.7678 3.23223C16.2989 2.76339 15.663 2.5 15 2.5C14.337 2.5 13.7011 2.76339 13.2322 3.23223C12.7634 3.70107 12.5 4.33696 12.5 5C12.5 5.66304 12.7634 6.29893 13.2322 6.76777C13.7011 7.23661 14.337 7.5 15 7.5ZM8.75 10C8.75 10.663 8.48661 11.2989 8.01777 11.7678C7.54893 12.2366 6.91304 12.5 6.25 12.5C5.58696 12.5 4.95107 12.2366 4.48223 11.7678C4.01339 11.2989 3.75 10.663 3.75 10C3.75 9.33696 4.01339 8.70107 4.48223 8.23223C4.95107 7.76339 5.58696 7.5 6.25 7.5C6.91304 7.5 7.54893 7.76339 8.01777 8.23223C8.48661 8.70107 8.75 9.33696 8.75 10ZM8.75 20C8.75 20.663 8.48661 21.2989 8.01777 21.7678C7.54893 22.2366 6.91304 22.5 6.25 22.5C5.58696 22.5 4.95107 22.2366 4.48223 21.7678C4.01339 21.2989 3.75 20.663 3.75 20C3.75 19.337 4.01339 18.7011 4.48223 18.2322C4.95107 17.7634 5.58696 17.5 6.25 17.5C6.91304 17.5 7.54893 17.7634 8.01777 18.2322C8.48661 18.7011 8.75 19.337 8.75 20ZM17.5 25C17.5 25.663 17.2366 26.2989 16.7678 26.7678C16.2989 27.2366 15.663 27.5 15 27.5C14.337 27.5 13.7011 27.2366 13.2322 26.7678C12.7634 26.2989 12.5 25.663 12.5 25C12.5 24.337 12.7634 23.7011 13.2322 23.2322C13.7011 22.7634 14.337 22.5 15 22.5C15.663 22.5 16.2989 22.7634 16.7678 23.2322C17.2366 23.7011 17.5 24.337 17.5 25ZM26.25 20C26.25 20.663 25.9866 21.2989 25.5178 21.7678C25.0489 22.2366 24.413 22.5 23.75 22.5C23.087 22.5 22.4511 22.2366 21.9822 21.7678C21.5134 21.2989 21.25 20.663 21.25 20C21.25 19.337 21.5134 18.7011 21.9822 18.2322C22.4511 17.7634 23.087 17.5 23.75 17.5C24.413 17.5 25.0489 17.7634 25.5178 18.2322C25.9866 18.7011 26.25 19.337 26.25 20ZM26.25 10C26.25 10.663 25.9866 11.2989 25.5178 11.7678C25.0489 12.2366 24.413 12.5 23.75 12.5C23.087 12.5 22.4511 12.2366 21.9822 11.7678C21.5134 11.2989 21.25 10.663 21.25 10C21.25 9.33696 21.5134 8.70107 21.9822 8.23223C22.4511 7.76339 23.087 7.5 23.75 7.5C24.413 7.5 25.0489 7.76339 25.5178 8.23223C25.9866 8.70107 26.25 9.33696 26.25 10Z" stroke="#4584FF" stroke-width="1.66667" stroke-linecap="round" stroke-linejoin="round"/>
</svg>
