<svg width="12" height="7" viewBox="0 0 12 7" fill="none" xmlns="http://www.w3.org/2000/svg">
<path fill-rule="evenodd" clip-rule="evenodd" d="M6.64846 6.64847C6.47944 6.81744 6.25022 6.91236 6.01122 6.91236C5.77222 6.91236 5.54301 6.81744 5.37398 6.64847L0.275165 1.54965C0.189079 1.4665 0.120414 1.36705 0.0731758 1.25708C0.0259381 1.14712 0.00107374 1.02884 3.37685e-05 0.909166C-0.00100621 0.789488 0.0217992 0.670802 0.0671188 0.560032C0.112438 0.449262 0.179365 0.348626 0.263993 0.263998C0.348621 0.179369 0.449256 0.112443 0.560026 0.0671231C0.670796 0.0218036 0.789483 -0.00100109 0.909161 3.86411e-05C1.02884 0.00107838 1.14711 0.0259429 1.25708 0.0731805C1.36704 0.120419 1.4665 0.189083 1.54964 0.275169L6.01122 4.73675L10.4728 0.275169C10.6428 0.110985 10.8705 0.0201357 11.1068 0.0221894C11.3431 0.0242431 11.5692 0.119034 11.7363 0.286149C11.9034 0.453262 11.9982 0.679327 12.0003 0.915653C12.0023 1.15198 11.9115 1.37966 11.7473 1.54965L6.64846 6.64847Z" fill="black"/>
</svg>
